<?xml version="1.0" standalone="no"?>
<svg xmlns="http://www.w3.org/2000/svg" width="24" height="24"><rect width="24" height="24" opacity="0"></rect><g><path d="M12 23.74Q15.17 23.74 17.87 22.15Q20.57 20.57 22.15 17.88Q23.74 15.19 23.74 12Q23.74 8.81 22.15 6.12Q20.57 3.43 17.87 1.85Q15.17 0.26 12 0.26Q8.81 0.26 6.11 1.85Q3.41 3.43 1.82 6.12Q0.24 8.81 0.24 12Q0.24 15.19 1.82 17.88Q3.41 20.57 6.11 22.15Q8.81 23.74 12 23.74ZM12 3.24Q14.42 3.24 16.43 4.39Q18.43 5.54 19.58 7.56Q20.74 9.58 20.74 12Q20.74 14.42 19.58 16.44Q18.43 18.46 16.43 19.61Q14.42 20.76 12 20.76Q9.55 20.76 7.55 19.61Q5.54 18.46 4.39 16.45Q3.24 14.45 3.24 12Q3.24 9.55 4.39 7.55Q5.54 5.54 7.55 4.39Q9.55 3.24 12 3.24Z" fill="rgba(0,0,0,0.9019607843137255)"></path></g></svg>