<svg xmlns="http://www.w3.org/2000/svg" width="54" height="54" viewBox="0 0 54 54">
  <g id="已缓存" transform="translate(2181 -10203)">
    <path id="减去_7" data-name="减去 7" d="M27,54A27.007,27.007,0,0,1,16.49,2.122,27.007,27.007,0,0,1,37.509,51.878,26.832,26.832,0,0,1,27,54Zm7.037-28.951a1.526,1.526,0,0,0-1.524,1.524v11.29a1.524,1.524,0,1,0,3.049,0V26.574A1.526,1.526,0,0,0,34.037,25.049Zm-7.059-7.234a1.526,1.526,0,0,0-1.524,1.524V37.863a1.524,1.524,0,0,0,3.049,0V19.339A1.526,1.526,0,0,0,26.978,17.815Zm-7.059,7.234a1.526,1.526,0,0,0-1.524,1.524v11.29a1.524,1.524,0,1,0,3.048,0V26.574A1.526,1.526,0,0,0,19.919,25.049ZM27,9.9a14.112,14.112,0,0,0-13.1,8.783A10.519,10.519,0,0,0,5.771,28.906v.1a10.587,10.587,0,0,0,5.792,9.46,1.416,1.416,0,0,0,1.288-2.522,7.779,7.779,0,0,1,2.317-14.629l.842-.131.276-.807a11.328,11.328,0,0,1,21.426,0l.277.807.842.131a7.788,7.788,0,0,1,2.315,14.63,1.418,1.418,0,0,0,1.288,2.522,10.592,10.592,0,0,0,5.795-9.462v-.1A10.522,10.522,0,0,0,40.1,18.683,14.109,14.109,0,0,0,27,9.9Z" transform="translate(-2181 10203)" fill="#0d4c00"/>
  </g>
</svg>
