<svg xmlns="http://www.w3.org/2000/svg" width="54" height="54" viewBox="0 0 54 54">
  <g id="已下载" transform="translate(2095 -10288)">
    <path id="减去_9" data-name="减去 9" d="M27,54A27.007,27.007,0,0,1,16.49,2.122,27.007,27.007,0,0,1,37.51,51.878,26.832,26.832,0,0,1,27,54ZM18.3,34.07a1.584,1.584,0,0,0-1.12,2.7l5.256,5.256a1.655,1.655,0,0,0,.21.227,1.819,1.819,0,0,0,.154.123,1.592,1.592,0,0,0,.989.346,1.573,1.573,0,0,0,1.12-.464,1.536,1.536,0,0,0,.135-.154L38.709,26.934a1.683,1.683,0,0,0-2.5-2.252L23.587,38.7l-4.164-4.165A1.575,1.575,0,0,0,18.3,34.07ZM27,9.9a14.113,14.113,0,0,0-13.1,8.783,10.62,10.62,0,0,0-2.338,19.783,1.416,1.416,0,0,0,1.288-2.523,7.779,7.779,0,0,1,2.318-14.628l.841-.132.276-.806a11.328,11.328,0,0,1,21.425,0l.277.806.842.132a7.787,7.787,0,0,1,2.316,14.629,1.418,1.418,0,0,0,1.288,2.522A10.62,10.62,0,0,0,40.1,18.683,14.11,14.11,0,0,0,27,9.9Z" transform="translate(-2095 10288)" fill="#0d4c00"/>
  </g>
</svg>
