<?xml version="1.0" standalone="no"?>
<svg xmlns="http://www.w3.org/2000/svg" width="35" height="35"><rect width="35" height="35" opacity="0"></rect><g><path d="M32.55 26.25Q31.92 25.06 30.77 24.17Q29.61 23.28 27.65 22.44Q26.5 21.98 24.9 21.11Q23.31 20.23 22.51 19.5L23.8 16.73Q25.31 15.75 26.01 13.51Q26.43 12.32 26.23 11.55Q26.04 10.78 25.62 10.15L25.62 10.15L25.59 9.35Q25.52 7.81 25.34 6.86Q25.17 5.92 24.54 4.9Q23.31 2.87 21.37 2.31Q19.43 1.75 17.5 1.75Q15.58 1.75 13.63 2.31Q11.69 2.87 10.47 4.9Q9.8 6.02 9.63 7.18Q9.45 8.33 9.45 10.05L9.31 10.26Q8.93 10.89 8.79 11.66Q8.65 12.43 9 13.51Q9.42 14.77 10.03 15.54Q10.64 16.31 11.2 16.7L11.24 16.73Q11.55 17.29 11.83 17.89L12.6 19.43Q11.27 20.48 10.03 21.16Q8.79 21.84 7.46 22.4L7.39 22.44Q5.39 23.28 4.24 24.17Q3.08 25.06 2.45 26.25Q2 27.13 1.91 28.12Q1.82 29.12 2.19 30Q2.56 30.87 3.4 31.4Q5.46 32.62 9.64 32.95Q13.83 33.29 17.5 33.25L17.68 33.25Q21.98 33.25 25.83 32.9Q29.68 32.55 31.64 31.36Q32.48 30.84 32.85 29.96Q33.22 29.09 33.13 28.09Q33.04 27.09 32.55 26.25ZM30.45 29.51Q28.77 30.56 23.14 30.94Q17.5 31.33 11.85 30.92Q6.2 30.52 4.52 29.51Q4.06 29.23 4.04 28.53Q4.03 27.83 4.34 27.3Q4.8 26.46 5.69 25.8Q6.58 25.13 8.23 24.43Q11.69 23 13.9 21.18Q14.67 20.55 14.79 19.78Q14.91 19.01 14.39 18.17L13.02 15.51Q12.92 15.26 12.74 15.12Q12.57 14.98 12.43 14.91Q12.04 14.7 11.67 14.18Q11.31 13.65 11.06 12.85Q10.89 12.32 10.92 12.04Q10.96 11.76 11.13 11.48L11.2 11.38L11.41 10.99Q11.55 10.78 11.59 10.59Q11.62 10.4 11.62 9.63L11.62 9.52Q11.62 8.51 11.74 7.67Q11.87 6.83 12.36 6.02Q13.02 4.94 14.26 4.43Q15.51 3.92 17.5 3.92Q19.5 3.92 20.74 4.43Q21.98 4.94 22.65 6.02Q23.14 6.86 23.26 7.74Q23.38 8.61 23.38 9.63Q23.38 9.73 23.38 9.77Q23.38 9.8 23.38 9.91Q23.38 10.43 23.45 10.68Q23.52 10.92 23.8 11.38L23.87 11.45Q24.05 11.76 24.08 12.02Q24.12 12.29 23.94 12.85Q23.7 13.65 23.31 14.18Q22.93 14.7 22.58 14.91Q22.16 15.16 22.02 15.44L21.95 15.54L20.58 18.17Q20.06 19.08 20.18 19.81Q20.3 20.55 21.11 21.21Q22.3 22.19 23.49 22.84Q24.68 23.49 26.64 24.4Q26.71 24.43 26.78 24.47Q28.42 25.17 29.3 25.81Q30.17 26.46 30.63 27.3Q30.94 27.9 30.94 28.56Q30.94 29.23 30.45 29.51Z" fill="rgba(0,0,0,0.9019607843137255)"></path></g></svg>