<svg xmlns="http://www.w3.org/2000/svg" width="54" height="54" viewBox="0 0 54 54">
  <g id="已缓存" transform="translate(2181 -10203)">
    <path id="减去_7" d="M27,54A27.007,27.007,0,0,1,16.49,2.122,27.007,27.007,0,0,1,37.509,51.878,26.83,26.83,0,0,1,27,54Zm5.882-29.018a1.276,1.276,0,0,0-1.274,1.274V35.7a1.274,1.274,0,0,0,2.549,0V26.257A1.276,1.276,0,0,0,32.882,24.982Zm-11.8,0A1.276,1.276,0,0,0,19.8,26.257V35.7a1.274,1.274,0,0,0,2.549,0V26.257A1.276,1.276,0,0,0,21.079,24.982Zm5.9-6.05a1.276,1.276,0,0,0-1.274,1.274V35.695a1.274,1.274,0,0,0,2.549,0V20.207A1.276,1.276,0,0,0,26.98,18.932ZM27,12.317A11.8,11.8,0,0,0,16.049,19.66,8.879,8.879,0,0,0,14.094,36.2a1.164,1.164,0,0,0,.536.13,1.184,1.184,0,0,0,.54-2.238,6.5,6.5,0,0,1,1.938-12.23l.7-.111.23-.674a9.47,9.47,0,0,1,17.913,0l.232.674.7.111a6.511,6.511,0,0,1,1.936,12.231A1.186,1.186,0,0,0,39.9,36.2,8.879,8.879,0,0,0,37.951,19.66,11.8,11.8,0,0,0,27,12.317Z" transform="translate(-2181 10203)" fill="#f2f2f2"/>
  </g>
</svg>
