<svg xmlns="http://www.w3.org/2000/svg" width="54" height="54" viewBox="0 0 54 54">
  <g id="已下载" transform="translate(2095 -10288)">
    <path id="减去_9" d="M27,54A27.007,27.007,0,0,1,16.49,2.122,27.007,27.007,0,0,1,37.51,51.878,26.832,26.832,0,0,1,27,54ZM19.646,32.873a1.339,1.339,0,0,0-.947,2.286L23.143,39.6a1.382,1.382,0,0,0,.178.193,1.546,1.546,0,0,0,.129.1,1.342,1.342,0,0,0,1.785-.1,1.373,1.373,0,0,0,.117-.135L36.9,26.839a1.423,1.423,0,0,0-2.115-1.9L24.114,36.787l-3.521-3.522A1.33,1.33,0,0,0,19.646,32.873ZM27,12.434a11.934,11.934,0,0,0-11.077,7.427,8.979,8.979,0,0,0-1.976,16.727,1.2,1.2,0,1,0,1.089-2.132A6.578,6.578,0,0,1,17,22.087l.712-.112.233-.682a9.579,9.579,0,0,1,18.118,0l.234.682.712.112a6.585,6.585,0,0,1,1.958,12.371,1.2,1.2,0,0,0,1.089,2.133,8.98,8.98,0,0,0-1.975-16.729A11.933,11.933,0,0,0,27,12.434Z" transform="translate(-2095 10288)" fill="#f2f2f2"/>
  </g>
</svg>
